<?xml version="1.0" encoding="utf-8"?>
<!-- Generator: Adobe Illustrator 14.0.0, SVG Export Plug-In . SVG Version: 6.00 Build 43363)  -->
<!DOCTYPE svg PUBLIC "-//W3C//DTD SVG 1.1//EN" "http://www.w3.org/Graphics/SVG/1.1/DTD/svg11.dtd">
<svg version="1.1"
	 id="svg2426" xmlns:rdf="http://www.w3.org/1999/02/22-rdf-syntax-ns#" sodipodi:docname="system-logo-sprite.svg" inkscape:version="0.46+devel" xmlns:svg="http://www.w3.org/2000/svg" xmlns:sodipodi="http://sodipodi.sourceforge.net/DTD/sodipodi-0.dtd" sodipodi:version="0.32" xmlns:dc="http://purl.org/dc/elements/1.1/" xmlns:cc="http://creativecommons.org/ns#" xmlns:inkscape="http://www.inkscape.org/namespaces/inkscape" inkscape:output_extension="org.inkscape.output.svg.inkscape"
	 xmlns="http://www.w3.org/2000/svg" xmlns:xlink="http://www.w3.org/1999/xlink" x="0px" y="0px" width="48px" height="48px"
	 viewBox="0 0 48 48" enable-background="new 0 0 48 48" xml:space="preserve">
<defs>
	
	
		<inkscape:perspective  id="perspective2434" inkscape:persp3d-origin="0.5 : 0.33333333 : 1" inkscape:vp_z="1 : 0.5 : 1" inkscape:vp_y="0 : 1000 : 0" inkscape:vp_x="0 : 0.5 : 1" sodipodi:type="inkscape:persp3d">
		</inkscape:perspective>
</defs>
<sodipodi:namedview  id="namedview2428" inkscape:current-layer="g2436" inkscape:window-y="33" inkscape:window-x="0" inkscape:cy="10.925242" inkscape:cx="109.75519" inkscape:zoom="1.9070707" showgrid="false" inkscape:window-height="840" inkscape:window-width="1400" inkscape:pageshadow="2" inkscape:pageopacity="0" guidetolerance="10" gridtolerance="10" objecttolerance="10" borderopacity="1" bordercolor="#666666" pagecolor="#ffffff">
	</sodipodi:namedview>
<rect fill="#FFFFFF" width="48" height="48"/>
<g>
	<g>
		<g>
			<path fill="#A4A4A4" d="M41.9,27.566c-0.367,0-0.875,0.078-1.088,0.292c-0.288,0.289-0.293,0.789-0.293,0.794v1.256
				c0,0.64,0.097,0.875,0.274,1.086c0.212,0.253,0.444,0.358,1.319,0.358h1.854v-0.448h-1.762c-0.452,0-0.713-0.047-0.893-0.297
				c-0.134-0.188-0.146-0.349-0.146-0.699v-0.149h1.567c0.441,0,0.729-0.039,0.898-0.121c0.342-0.152,0.552-0.534,0.552-0.995
				c0-0.366-0.136-0.674-0.384-0.864c-0.225-0.165-0.402-0.212-1.235-0.212h-0.631C41.931,27.566,41.92,27.566,41.9,27.566
				L41.9,27.566z M42.649,29.311h-1.481v-0.606c0-0.025,0.003-0.273,0.203-0.508c0.133-0.16,0.396-0.184,0.544-0.184
				c0.02,0,0.032,0.003,0.04,0.003h0.694c0.427,0,0.863,0.074,0.863,0.642c0,0.281-0.136,0.503-0.362,0.594
				C43.026,29.303,42.91,29.311,42.649,29.311L42.649,29.311z"/>
		</g>
		<path fill="#A4A4A4" d="M39.474,28.627h0.627c-0.023-0.47-0.117-0.647-0.273-0.787c-0.225-0.203-0.516-0.273-1.158-0.273h-1.675
			v3.786h0.648v-3.321h0.978C39.145,28.031,39.4,28.198,39.474,28.627z"/>
		<g>
			<path fill="#A4A4A4" d="M34.668,27.564c-1.21,0-1.935,0.714-1.935,1.916c0,1.209,0.68,1.875,1.911,1.875
				c1.211,0,1.934-0.694,1.934-1.859C36.578,28.25,35.9,27.564,34.668,27.564L34.668,27.564z M34.652,30.942
				c-0.826,0-1.283-0.521-1.283-1.47c0-0.967,0.457-1.498,1.283-1.498c0.82,0,1.29,0.549,1.29,1.506
				C35.942,30.424,35.484,30.942,34.652,30.942L34.652,30.942z"/>
		</g>
		<path fill="#A4A4A4" d="M29.513,29.047c0-0.351,0.014-0.511,0.146-0.698c0.18-0.251,0.441-0.297,0.891-0.297h1.764v-0.446h-1.854
			c-0.876,0-1.106,0.105-1.318,0.355c-0.178,0.212-0.275,0.449-0.275,1.086v0.897c0,0.638,0.098,0.874,0.275,1.086
			c0.212,0.25,0.442,0.355,1.318,0.355h1.854V30.94h-1.764c-0.449,0-0.711-0.047-0.891-0.297c-0.132-0.188-0.146-0.349-0.146-0.699
			V29.047z"/>
	</g>
	<g>
		<g>
			<linearGradient id="SVGID_1_" gradientUnits="userSpaceOnUse" x1="32.7676" y1="24.8887" x2="32.7676" y2="16.6294">
				<stop  offset="0" style="stop-color:#97BA60"/>
				<stop  offset="0.1967" style="stop-color:#93B55D"/>
				<stop  offset="0.4173" style="stop-color:#87A856"/>
				<stop  offset="0.6495" style="stop-color:#739149"/>
				<stop  offset="0.8882" style="stop-color:#577237"/>
				<stop  offset="1" style="stop-color:#47612D"/>
			</linearGradient>
			<path fill="url(#SVGID_1_)" d="M32.812,16.629c-1.285,0.001-2.244,0.32-2.934,0.974c-0.68,0.655-1.056,1.788-1.056,3.188
				c0,1.113,0.281,2.159,0.75,2.796c0.601,0.839,1.748,1.302,3.233,1.302c2.591,0,3.906-1.366,3.906-4.06
				C36.712,17.965,35.473,16.631,32.812,16.629L32.812,16.629z M32.766,24.103c-1.839,0-2.697-1.072-2.697-3.376
				c0-2.254,0.869-3.308,2.737-3.312h0.013c1.806,0.005,2.647,1.078,2.647,3.376C35.466,23.05,34.607,24.103,32.766,24.103
				L32.766,24.103z"/>
		</g>
		<g>
			<linearGradient id="SVGID_2_" gradientUnits="userSpaceOnUse" x1="40.6758" y1="24.8242" x2="40.6758" y2="16.6924">
				<stop  offset="0" style="stop-color:#97BA60"/>
				<stop  offset="0.1967" style="stop-color:#93B55D"/>
				<stop  offset="0.4173" style="stop-color:#87A856"/>
				<stop  offset="0.6495" style="stop-color:#739149"/>
				<stop  offset="0.8882" style="stop-color:#577237"/>
				<stop  offset="1" style="stop-color:#47612D"/>
			</linearGradient>
			<path fill="url(#SVGID_2_)" d="M37.315,24.824h3.662c1.179,0,1.668-0.068,2.097-0.294c0.666-0.351,1.063-1.089,1.063-1.975
				c0-0.745-0.255-1.418-0.684-1.799c-0.424-0.392-1.067-0.536-2.372-0.536h-0.787c-0.964,0-1.953-0.156-1.953-1.322
				c0-0.54,0.259-0.995,0.674-1.186c0.297-0.135,0.692-0.189,1.371-0.189h3.314v-0.831h-3.394c-0.948,0-1.457,0.071-1.876,0.262
				c-0.75,0.341-1.219,1.135-1.219,2.073c0,0.688,0.277,1.292,0.763,1.66c0.394,0.302,1.038,0.442,2.024,0.442h1.107
				c0.594,0,0.816,0.027,1.089,0.132c0.499,0.181,0.814,0.688,0.814,1.32c0,0.521-0.206,0.913-0.611,1.16
				c-0.268,0.18-0.673,0.253-1.395,0.253h-3.698L37.315,24.824L37.315,24.824z"/>
		</g>
		<g>
			<path fill="#686969" d="M8.583,24.886h0.988v-8.072h-0.99L8.583,24.886L8.583,24.886z"/>
		</g>
		<g>
			<path fill="#686969" d="M18.875,21.543c-0.676,0-1.112,0.059-1.372,0.183c-0.521,0.233-0.842,0.814-0.842,1.52
				c0,0.558,0.209,1.025,0.588,1.315c0.339,0.255,0.612,0.325,1.881,0.325h3.121v-3.57c0-0.974-0.147-1.333-0.419-1.656
				c-0.324-0.384-0.675-0.545-2.012-0.545h-2.827v0.682h2.688c0.688,0,1.087,0.07,1.361,0.453c0.202,0.286,0.222,0.532,0.222,1.066
				v0.228H18.875L18.875,21.543z M21.264,24.203h-2.261c-0.65,0-1.314-0.117-1.314-0.982c0-0.426,0.207-0.764,0.552-0.902
				c0.191-0.079,0.358-0.093,0.762-0.093h2.261V24.203L21.264,24.203z"/>
		</g>
		<g>
			<path fill="#686969" d="M12.702,19.114c-0.561,0-1.333,0.117-1.662,0.446c-0.437,0.438-0.444,1.201-0.444,1.208v1.914
				c0,0.975,0.147,1.334,0.42,1.657c0.323,0.383,0.674,0.546,2.011,0.546h2.827v-0.683h-2.687c-0.688,0-1.088-0.071-1.361-0.454
				c-0.202-0.286-0.221-0.53-0.221-1.066v-0.228h2.387c0.676,0,1.112-0.057,1.372-0.181c0.521-0.234,0.842-0.815,0.842-1.521
				c0-0.558-0.208-1.023-0.588-1.314c-0.339-0.254-0.612-0.324-1.881-0.324h-0.96C12.748,19.115,12.731,19.114,12.702,19.114
				L12.702,19.114z M13.843,21.774h-2.259v-0.925c-0.001-0.04,0.004-0.416,0.307-0.774c0.206-0.243,0.609-0.278,0.832-0.278
				c0.03,0,0.051,0,0.062,0h1.058c0.651,0,1.315,0.117,1.315,0.982c0,0.427-0.206,0.764-0.553,0.902
				C14.417,21.76,14.242,21.774,13.843,21.774L13.843,21.774z"/>
		</g>
		<path fill="#686969" d="M3.198,21.316c0-0.534,0.019-0.78,0.22-1.066c0.275-0.382,0.673-0.452,1.362-0.452h2.687v-0.683H4.639
			c-1.337,0-1.688,0.161-2.012,0.545c-0.272,0.323-0.419,0.682-0.419,1.656v1.367c0,0.975,0.147,1.334,0.419,1.657
			c0.324,0.383,0.674,0.546,2.012,0.546h2.827v-0.683H4.78c-0.688,0-1.087-0.071-1.362-0.454c-0.201-0.286-0.22-0.53-0.22-1.066
			V21.316z"/>
		<path fill="#686969" d="M27.06,20.73h0.954c-0.033-0.716-0.178-0.988-0.415-1.201c-0.344-0.31-0.789-0.415-1.766-0.415h-2.554
			l0.001,5.771h0.988v-5.063h1.487C26.559,19.822,26.947,20.078,27.06,20.73z"/>
	</g>
	<text transform="matrix(1 0 0 1 44.6963 17.3076)" fill="#686969" font-family="'NeoSans'" font-size="0.8315">TM</text>
</g>
</svg>
